<?xml version="1.0" standalone="no"?>
<!DOCTYPE svg PUBLIC "-//W3C//DTD SVG 20010904//EN"
 "http://www.w3.org/TR/2001/REC-SVG-20010904/DTD/svg10.dtd">
<svg version="1.0" xmlns="http://www.w3.org/2000/svg"
 width="3840.000000pt" height="2160.000000pt" viewBox="0 0 3840.000000 2160.000000"
 preserveAspectRatio="xMidYMid meet">
<rect width="100%" height="100%" fill="black" />
<g transform="translate(0.000000,2160.000000) scale(0.100000,-0.100000)"
fill="white">
<path d="M0 10800 l0 -10800 19200 0 19200 0 0 10800 0 10800 -19200 0 -19200
0 0 -10800z m13650 3265 l0 -65 70 0 70 0 0 65 c0 58 2 65 20 65 19 0 20 -7
20 -150 0 -143 -1 -150 -20 -150 -18 0 -20 7 -20 70 l0 70 -70 0 -70 0 0 -70
c0 -63 -2 -70 -20 -70 -19 0 -20 7 -20 150 0 143 1 150 20 150 18 0 20 -7 20
-65z m524 -57 l66 -123 0 123 c0 115 1 122 20 122 19 0 20 -7 20 -151 l0 -150
-26 3 c-23 3 -36 20 -90 123 l-64 120 0 -122 c0 -116 -1 -123 -20 -123 -19 0
-20 7 -20 150 l0 150 24 0 c21 0 34 -17 90 -122z m1730 0 l66 -123 0 123 c0
115 1 122 20 122 19 0 20 -7 20 -151 l0 -150 -26 3 c-23 3 -36 20 -90 123
l-64 120 0 -122 c0 -116 -1 -123 -20 -123 -19 0 -20 7 -20 150 l0 150 24 0
c21 0 34 -17 90 -122z m-1916 -14 c35 -24 28 -59 -24 -114 l-47 -50 47 0 c25
0 46 -4 46 -10 0 -6 -27 -10 -60 -10 -39 0 -60 4 -60 12 0 6 23 35 50 64 28
29 50 59 50 67 0 26 -28 40 -65 33 -35 -7 -51 8 -17 17 34 9 58 7 80 -9z m743
-324 c162 -94 300 -168 307 -165 8 3 142 79 299 170 194 112 290 162 297 155
5 -5 8 -12 5 -14 -2 -2 -134 -79 -294 -171 -159 -92 -293 -173 -297 -179 -4
-6 -8 -228 -8 -493 l0 -482 43 -25 c547 -316 809 -466 812 -466 3 0 138 77
301 171 220 127 299 168 304 158 6 -9 -71 -58 -283 -181 -178 -102 -297 -176
-305 -190 -6 -13 -42 -165 -78 -338 -75 -365 -69 -341 -87 -334 -10 4 2 76 59
342 39 185 70 340 68 344 -2 3 -193 115 -424 248 l-420 242 -207 -188 c-115
-103 -226 -205 -249 -226 -32 -31 -43 -36 -52 -26 -8 10 47 64 239 237 l249
224 0 496 0 496 -283 163 c-341 196 -311 177 -303 191 4 6 8 11 10 11 2 0 135
-77 297 -170z m1748 -9 l301 -174 0 -373 c0 -324 -2 -374 -15 -374 -13 0 -15
50 -17 366 l-3 366 -290 169 c-159 92 -294 170 -299 172 -5 2 -6 9 -2 16 4 6
11 11 16 9 4 -2 143 -81 309 -177z m-415 -41 c217 -55 391 -220 462 -436 26
-79 29 -102 28 -209 0 -102 -5 -132 -27 -201 -71 -214 -255 -385 -476 -440
-89 -22 -272 -15 -361 14 -164 54 -308 179 -385 334 -47 97 -75 206 -75 298 0
134 62 309 149 418 81 102 214 188 343 222 100 26 241 26 342 0z m710 -1112
l66 -123 0 123 c0 115 1 122 20 122 19 0 20 -7 20 -151 l0 -150 -26 3 c-23 3
-36 20 -90 123 l-64 120 0 -122 c0 -116 -1 -123 -20 -123 -19 0 -20 7 -20 150
l0 150 24 0 c21 0 34 -17 90 -122z m-1503 -368 c217 -68 360 -249 376 -475 10
-154 -43 -291 -157 -406 -212 -213 -550 -207 -758 15 -155 166 -186 399 -81
609 60 119 208 236 335 266 73 17 217 13 285 -9z m-977 -302 l66 -123 0 123
c0 115 1 122 20 122 19 0 20 -7 20 -151 l0 -150 -26 3 c-23 3 -36 20 -90 123
l-64 120 0 -122 c0 -116 -1 -123 -20 -123 -19 0 -20 7 -20 150 l0 150 24 0
c21 0 34 -17 90 -122z m10276 -153 l0 -65 70 0 70 0 0 65 c0 58 2 65 20 65 19
0 20 -7 20 -150 0 -143 -1 -150 -20 -150 -18 0 -20 7 -20 70 l0 70 -70 0 -70
0 0 -70 c0 -63 -2 -70 -20 -70 -19 0 -20 7 -20 150 0 143 1 150 20 150 18 0
20 -7 20 -65z m-145 33 c34 -27 55 -75 55 -128 0 -89 -51 -150 -126 -150 -24
0 -55 5 -69 12 -89 40 -91 233 -3 276 40 19 112 14 143 -10z m-9865 -485 c73
-164 137 -303 141 -308 6 -8 119 1 361 27 415 44 378 42 378 23 0 -8 -3 -15
-7 -15 -5 0 -174 -18 -378 -40 -203 -21 -370 -38 -371 -37 -11 12 -281 634
-277 640 2 4 8 7 12 7 5 0 68 -134 141 -297z m9562 93 c0 -4 -51 -64 -112
-133 -80 -88 -116 -121 -123 -114 -8 8 -4 19 14 38 14 16 65 72 114 126 79 87
106 109 107 83z m-1347 -148 c34 -27 55 -75 55 -128 0 -89 -51 -150 -126 -150
-24 0 -55 5 -69 12 -89 40 -91 233 -3 276 40 19 112 14 143 -10z m-7081 -150
l66 -123 0 123 c0 115 1 122 20 122 19 0 20 -7 20 -151 l0 -150 -26 3 c-23 3
-36 20 -90 123 l-64 120 0 -122 c0 -116 -1 -123 -20 -123 -19 0 -20 7 -20 150
l0 150 24 0 c21 0 34 -17 90 -122z m7524 -67 c123 -27 225 -51 228 -54 4 -3 3
-10 0 -15 -4 -6 -38 -3 -88 8 -46 10 -152 33 -235 51 -106 22 -153 36 -153 45
0 19 -3 19 248 -35z m533 12 c15 -15 22 -34 22 -63 0 -57 -26 -81 -92 -88
l-51 -5 0 -58 c0 -52 -2 -59 -20 -59 -19 0 -20 7 -20 151 l0 151 70 -4 c55 -3
75 -8 91 -25z m414 -128 c115 -25 213 -45 217 -45 5 0 8 -7 8 -15 0 -8 -4 -15
-10 -15 -5 0 -104 20 -220 45 -116 25 -213 45 -215 45 -3 0 -5 7 -5 15 0 8 3
15 8 15 4 0 101 -20 217 -45z m-1690 -45 c10 -15 -226 -273 -238 -261 -11 11
1 25 133 174 47 52 88 96 92 96 4 1 10 -4 13 -9z m2260 -32 c34 -27 55 -75 55
-128 0 -89 -51 -150 -126 -150 -24 0 -55 5 -69 12 -89 40 -91 233 -3 276 40
19 112 14 143 -10z m-8600 -240 c168 -187 225 -244 245 -246 22 -3 510 44 663
64 37 5 47 3 47 -9 0 -18 5 -17 -395 -58 -209 -21 -313 -36 -320 -44 -12 -14
-211 -943 -204 -949 2 -2 193 -112 423 -245 l419 -242 31 29 c17 16 168 152
336 302 168 150 317 285 332 299 l27 26 -133 300 c-90 202 -130 302 -122 307
6 4 14 4 17 0 3 -4 63 -137 134 -297 70 -159 130 -293 134 -297 3 -3 221 -52
484 -108 l477 -101 49 53 c26 29 122 136 213 236 91 101 170 183 174 182 5 0
8 -7 8 -14 -2 -17 -425 -486 -439 -486 -5 0 -227 45 -491 102 l-482 101 -348
-313 c-192 -172 -357 -320 -366 -329 -17 -16 -16 -33 17 -345 39 -371 40 -376
22 -376 -9 0 -22 90 -49 346 -25 237 -40 350 -50 359 -13 13 -784 459 -824
477 -16 8 -81 -17 -326 -126 -168 -75 -308 -136 -312 -136 -3 0 -6 6 -6 14 0
8 118 66 308 151 l308 137 98 461 c54 254 100 471 102 482 3 15 -53 83 -220
269 -202 224 -234 266 -207 266 5 0 106 -109 226 -242z m8001 153 c234 -49
225 -47 218 -64 -4 -11 -49 -4 -225 34 -121 26 -223 50 -226 52 -9 9 8 29 21
24 7 -3 102 -24 212 -46z m-3011 -33 c34 -27 55 -75 55 -128 0 -89 -51 -150
-126 -150 -24 0 -55 5 -69 12 -89 40 -91 233 -3 276 40 19 112 14 143 -10z
m2718 -259 c41 -127 55 -185 48 -192 -6 -6 -12 -9 -14 -6 -2 2 -29 84 -61 182
-52 161 -59 197 -38 197 4 0 33 -82 65 -181z m-6418 99 c34 -27 55 -75 55
-128 0 -89 -51 -150 -126 -150 -24 0 -55 5 -69 12 -89 40 -91 233 -3 276 40
19 112 14 143 -10z m4145 -63 c119 -25 219 -45 223 -45 9 0 9 -30 0 -30 -21
-1 -459 94 -467 101 -11 10 2 29 17 24 7 -2 109 -25 227 -50z m531 8 c15 -15
22 -34 22 -63 0 -57 -26 -81 -92 -88 l-51 -5 0 -58 c0 -52 -2 -59 -20 -59 -19
0 -20 7 -20 151 l0 151 70 -4 c55 -3 75 -8 91 -25z m-1271 -174 c0 -6 -43 -59
-96 -117 -140 -155 -132 -148 -144 -136 -7 7 24 49 102 137 104 116 138 145
138 116z m1590 -250 c82 -96 109 -134 101 -142 -7 -7 -14 -7 -19 -1 -40 45
-190 223 -200 236 -11 14 -10 38 2 38 2 0 54 -59 116 -131z m-2935 99 c34 -27
55 -75 55 -128 0 -89 -51 -150 -126 -150 -24 0 -55 5 -69 12 -89 40 -91 233
-3 276 40 19 112 14 143 -10z m4725 -113 l0 -65 70 0 70 0 0 65 c0 58 2 65 20
65 19 0 20 -7 20 -150 0 -143 -1 -150 -20 -150 -18 0 -20 7 -20 70 l0 70 -70
0 -70 0 0 -70 c0 -63 -2 -70 -20 -70 -19 0 -20 7 -20 150 0 143 1 150 20 150
18 0 20 -7 20 -65z m-145 33 c34 -27 55 -75 55 -128 0 -89 -51 -150 -126 -150
-24 0 -55 5 -69 12 -89 40 -91 233 -3 276 40 19 112 14 143 -10z m-2045 -25
c0 -21 -7 -114 -15 -208 -8 -93 -15 -178 -15 -187 0 -10 -7 -18 -16 -18 -14 0
-16 9 -11 58 4 31 12 132 18 225 10 126 16 167 26 167 8 0 13 -13 13 -37z
m250 -74 c129 -153 134 -159 123 -170 -7 -7 -48 34 -122 120 -97 113 -122 152
-93 151 4 -1 45 -46 92 -101z m-2387 -30 c255 -54 267 -57 267 -75 0 -9 -6
-14 -12 -11 -7 2 -115 26 -240 52 -174 37 -225 51 -221 61 3 8 7 14 9 14 3 0
91 -18 197 -41z m568 4 c15 -15 22 -34 22 -63 0 -57 -26 -81 -92 -88 l-51 -5
0 -58 c0 -52 -2 -59 -20 -59 -19 0 -20 7 -20 151 l0 151 70 -4 c55 -3 75 -8
91 -25z m2304 -225 c34 -27 55 -75 55 -128 0 -89 -51 -150 -126 -150 -24 0
-55 5 -69 12 -89 40 -91 233 -3 276 40 19 112 14 143 -10z m-1981 -206 c105
-122 114 -136 98 -146 -12 -7 -234 253 -226 265 3 6 10 9 14 7 5 -2 56 -58
114 -126z m-399 1 c-3 -21 -9 -105 -15 -188 -14 -197 -18 -225 -36 -225 -11 0
-14 8 -10 33 3 17 10 104 16 192 13 201 17 225 36 225 11 0 13 -9 9 -37z m276
-114 c77 -89 104 -127 97 -136 -7 -9 -40 23 -123 120 -102 118 -125 155 -92
144 6 -2 59 -59 118 -128z m1374 79 c34 -27 55 -75 55 -128 0 -89 -51 -150
-126 -150 -24 0 -55 5 -69 12 -89 40 -91 233 -3 276 40 19 112 14 143 -10z
m-920 -290 c34 -27 55 -75 55 -128 0 -89 -51 -150 -126 -150 -24 0 -55 5 -69
12 -89 40 -91 233 -3 276 40 19 112 14 143 -10z m775 -93 l0 -65 70 0 70 0 0
65 c0 58 2 65 20 65 19 0 20 -7 20 -150 0 -143 -1 -150 -20 -150 -18 0 -20 7
-20 70 l0 70 -70 0 -70 0 0 -70 c0 -63 -2 -70 -20 -70 -19 0 -20 7 -20 150 0
143 1 150 20 150 18 0 20 -7 20 -65z m-7010 -90 l0 -65 70 0 70 0 0 65 c0 58
2 65 20 65 19 0 20 -7 20 -150 0 -143 -1 -150 -20 -150 -18 0 -20 7 -20 70 l0
70 -70 0 -70 0 0 -70 c0 -63 -2 -70 -20 -70 -19 0 -20 7 -20 150 0 143 1 150
20 150 18 0 20 -7 20 -65z m445 33 c34 -27 55 -75 55 -128 0 -89 -51 -150
-126 -150 -24 0 -55 5 -69 12 -89 40 -91 233 -3 276 40 19 112 14 143 -10z
m4625 -123 l0 -65 70 0 70 0 0 65 c0 58 2 65 20 65 19 0 20 -7 20 -150 0 -143
-1 -150 -20 -150 -18 0 -20 7 -20 70 l0 70 -70 0 -70 0 0 -70 c0 -63 -2 -70
-20 -70 -19 0 -20 7 -20 150 0 143 1 150 20 150 18 0 20 -7 20 -65z m445 33
c34 -27 55 -75 55 -128 0 -89 -51 -150 -126 -150 -24 0 -55 5 -69 12 -89 40
-91 233 -3 276 40 19 112 14 143 -10z m-3045 -1023 l0 -65 70 0 70 0 0 65 c0
58 2 65 20 65 19 0 20 -7 20 -150 0 -143 -1 -150 -20 -150 -18 0 -20 7 -20 70
l0 70 -70 0 -70 0 0 -70 c0 -63 -2 -70 -20 -70 -19 0 -20 7 -20 150 0 143 1
150 20 150 18 0 20 -7 20 -65z m-145 33 c34 -27 55 -75 55 -128 0 -89 -51
-150 -126 -150 -24 0 -55 5 -69 12 -89 40 -91 233 -3 276 40 19 112 14 143
-10z"/>
<path d="M15860 13612 c-173 -12 -336 -93 -446 -222 -59 -70 -87 -119 -120
-215 -24 -70 -28 -95 -28 -195 0 -97 5 -127 27 -196 87 -263 325 -435 602
-435 174 1 325 62 444 181 76 76 121 148 159 252 23 64 26 88 26 198 0 110 -3
134 -26 198 -71 197 -217 341 -411 406 -53 18 -171 33 -227 28z"/>
<path d="M14958 12107 c-248 -85 -389 -347 -323 -602 49 -186 212 -332 408
-366 267 -45 531 152 570 425 34 235 -105 462 -332 542 -92 33 -228 33 -323 1z"/>
<path d="M24286 11687 c-46 -46 -42 -168 7 -202 35 -24 89 -19 118 11 21 22
24 35 24 94 0 59 -3 72 -24 94 -33 35 -92 36 -125 3z"/>
<path d="M22636 11147 c-46 -46 -42 -168 7 -202 35 -24 89 -19 118 11 21 22
24 35 24 94 0 59 -3 72 -24 94 -33 35 -92 36 -125 3z"/>
<path d="M23630 10910 l0 -60 35 0 c39 0 75 28 75 60 0 32 -36 60 -75 60 l-35
0 0 -60z"/>
<path d="M24596 10737 c-46 -46 -42 -168 7 -202 35 -24 89 -19 118 11 21 22
24 35 24 94 0 59 -3 72 -24 94 -33 35 -92 36 -125 3z"/>
<path d="M20986 10617 c-46 -46 -42 -168 7 -202 35 -24 89 -19 118 11 21 22
24 35 24 94 0 59 -3 72 -24 94 -33 35 -92 36 -125 3z"/>
<path d="M17286 10457 c-46 -46 -42 -168 7 -202 35 -24 89 -19 118 11 21 22
24 35 24 94 0 59 -3 72 -24 94 -33 35 -92 36 -125 3z"/>
<path d="M21980 10370 l0 -60 35 0 c39 0 75 28 75 60 0 32 -36 60 -75 60 l-35
0 0 -60z"/>
<path  d="M19346 10077 c-46 -46 -42 -168 7 -202 35 -24 89 -19 118 11 21 22
24 35 24 94 0 59 -3 72 -24 94 -33 35 -92 36 -125 3z"/>
<path d="M23926 9997 c-46 -46 -42 -168 7 -202 35 -24 89 -19 118 11 21 22 24
35 24 94 0 59 -3 72 -24 94 -33 35 -92 36 -125 3z"/>
<path d="M20330 9840 l0 -60 35 0 c39 0 75 28 75 60 0 32 -36 60 -75 60 l-35
0 0 -60z"/>
<path d="M22616 9647 c-46 -46 -42 -168 7 -202 35 -24 89 -19 118 11 21 22 24
35 24 94 0 59 -3 72 -24 94 -33 35 -92 36 -125 3z"/>
<path d="M21886 9407 c-46 -46 -42 -168 7 -202 35 -24 89 -19 118 11 21 22 24
35 24 94 0 59 -3 72 -24 94 -33 35 -92 36 -125 3z"/>
<path d="M20966 9117 c-46 -46 -42 -168 7 -202 35 -24 89 -19 118 11 21 22 24
35 24 94 0 59 -3 72 -24 94 -33 35 -92 36 -125 3z"/>
<path d="M15176 8967 c-46 -46 -42 -168 7 -202 35 -24 89 -19 118 11 21 22 24
35 24 94 0 59 -3 72 -24 94 -33 35 -92 36 -125 3z"/>
<path d="M20246 8877 c-46 -46 -42 -168 7 -202 35 -24 89 -19 118 11 21 22 24
35 24 94 0 59 -3 72 -24 94 -33 35 -92 36 -125 3z"/>
<path d="M17056 7887 c-46 -46 -42 -168 7 -202 35 -24 89 -19 118 11 21 22 24
35 24 94 0 59 -3 72 -24 94 -33 35 -92 36 -125 3z"/>
</g>
</svg>
